<?xml version="1.0" encoding="utf-8"?>
<!-- Generator: Adobe Illustrator 16.0.0, SVG Export Plug-In . SVG Version: 6.00 Build 0)  -->
<!DOCTYPE svg PUBLIC "-//W3C//DTD SVG 1.1//EN" "http://www.w3.org/Graphics/SVG/1.1/DTD/svg11.dtd">
<svg version="1.1" id="Layer_1" xmlns="http://www.w3.org/2000/svg" xmlns:xlink="http://www.w3.org/1999/xlink" x="0px" y="0px"
	 width="200px" height="200px" viewBox="0 0 200 200" enable-background="new 0 0 200 200" xml:space="preserve">
<g>
	<path d="M20.76,99.048c0-1.36,0-2.718,0-4.078c0.3-0.56,0.653-1.073,1.111-1.528c3.627-3.61,7.144-7.338,10.891-10.819
		c3.453-3.209,6.687-6.631,10.105-9.867c1.035-0.979,1.456-2.035,1.452-3.465c-0.04-15.171-0.026-30.343-0.025-45.514
		c0-2.82,0.027-2.845,2.901-2.846c7.563-0.001,15.126-0.001,22.689,0c2.898,0,2.899,0.002,2.899,2.967
		c0,5.752-0.003,11.503,0.008,17.255c0,0.43-0.143,0.89,0.137,1.32c0.525-0.154,0.786-0.604,1.125-0.942
		c7.243-7.23,14.48-14.468,21.713-21.709c0.578-0.579,1.157-1.146,1.91-1.497c0.815,0,1.631,0,2.446,0
		c0.371,0.255,0.787,0.437,1.104,0.779c2.276,2.463,4.906,4.558,7.244,6.961c5.273,5.421,10.806,10.581,16.212,15.867
		c3.301,3.227,6.487,6.581,9.906,9.68c3.63,3.288,6.893,6.946,10.511,10.231c3.457,3.139,6.57,6.624,10.021,9.759
		c3.689,3.354,7.021,7.072,10.703,10.419c3.457,3.143,6.652,6.537,9.992,9.791c1.061,1.033,2.454,1.743,3.126,3.16
		c0,1.359,0,2.718,0,4.077c-0.565,0.499-1.265,0.435-1.938,0.439c-2.264,0.015-4.527,0.002-6.793,0.006
		c-2.218,0.005-2.237,0.02-2.238,2.299c-0.003,9.601-0.001,19.201-0.001,28.801c-0.001,16.03,0.001,32.061-0.001,48.092
		c0,2.848-0.005,2.848-2.774,2.848c-42.297,0-84.591,0-126.887,0c-2.49,0-2.5,0-2.5-2.577c-0.005-15.441-0.002-30.883-0.002-46.325
		c0-10.099,0-20.197,0-30.296c0-0.407,0.008-0.815-0.006-1.222c-0.052-1.461-0.176-1.59-1.691-1.613
		c-1.403-0.021-2.807-0.004-4.211-0.006c-2.4-0.001-4.8,0.008-7.2-0.005C22.024,99.482,21.326,99.545,20.76,99.048z"/>
	<path fill="#7F0000" d="M169.662,93.554c-46.66,0-93.057,0-139.499,0c0.139-0.605,0.6-0.858,0.935-1.193
		c22.2-22.185,44.413-44.357,66.592-66.562c0.943-0.944,1.44-1.043,2.455-0.043c8.051,7.953,16.169,15.839,24.273,23.74
		c6.807,6.637,13.622,13.264,20.434,19.896c7.038,6.853,14.066,13.717,21.12,20.554C167.162,91.099,168.443,92.155,169.662,93.554z"
		/>
	<path fill="#EC811E" d="M101.832,98.942c19.565,0,39.13,0.014,58.694-0.029c1.29-0.004,1.649,0.283,1.647,1.617
		c-0.045,24.684-0.045,49.366-0.002,74.049c0.002,1.327-0.346,1.653-1.646,1.625c-3.938-0.092-7.881-0.103-11.819,0.004
		c-1.371,0.036-1.593-0.407-1.591-1.664c0.039-21.875,0.014-43.75,0.063-65.623c0.004-1.393-0.353-1.693-1.706-1.688
		c-14.447,0.054-28.896,0.05-43.341,0.002c-1.221-0.004-1.48,0.329-1.479,1.506c0.037,21.965,0.017,43.931,0.055,65.896
		c0.003,1.234-0.298,1.566-1.552,1.563c-18.704-0.042-37.409-0.042-56.113,0c-1.268,0.002-1.659-0.241-1.656-1.6
		c0.047-24.682,0.045-49.363,0.004-74.047c-0.002-1.288,0.277-1.646,1.611-1.643C62.611,98.958,82.221,98.942,101.832,98.942z"/>
	<path fill="#4C4C4C" d="M105.872,143.922c0-9.917,0.02-19.833-0.027-29.748c-0.006-1.23,0.299-1.602,1.569-1.596
		c11.003,0.052,22.007,0.054,33.009-0.002c1.303-0.006,1.551,0.416,1.548,1.614c-0.033,19.83-0.039,39.663,0.008,59.495
		c0.003,1.417-0.436,1.728-1.776,1.722c-10.867-0.051-21.733-0.053-32.601,0.001c-1.364,0.007-1.771-0.346-1.762-1.739
		C105.9,163.754,105.872,153.839,105.872,143.922z"/>
	<path fill="#7E0000" d="M50.077,65.858c0-4.783,0-9.307,0-13.829c0-8.01,0.026-16.02-0.028-24.029
		c-0.008-1.208,0.331-1.526,1.521-1.51c4.706,0.068,9.413,0.064,14.119,0.003c1.199-0.016,1.547,0.354,1.538,1.545
		c-0.053,6.517-0.032,13.033-0.016,19.549c0.001,0.807-0.147,1.483-0.752,2.084c-5.265,5.231-10.51,10.482-15.764,15.724
		C50.578,65.514,50.426,65.599,50.077,65.858z"/>
	<path d="M69.405,115.087c5.931,0,11.862,0.019,17.793-0.019c0.915-0.007,1.234,0.189,1.231,1.177
		c-0.035,11.863-0.037,23.725,0.002,35.588c0.004,1.06-0.336,1.259-1.313,1.257c-11.817-0.032-23.634-0.033-35.451,0
		c-0.998,0.004-1.297-0.229-1.293-1.269c0.039-11.817,0.042-23.635-0.004-35.451c-0.004-1.132,0.371-1.312,1.377-1.305
		C57.633,115.109,63.519,115.087,69.405,115.087z"/>
	<path fill="#FEFEFE" d="M67.231,142.129c0,1.582-0.036,3.163,0.017,4.744c0.024,0.72-0.201,0.91-0.908,0.902
		c-3.254-0.036-6.508-0.034-9.761-0.002c-0.709,0.008-0.931-0.208-0.923-0.921c0.033-3.254,0.034-6.507-0.001-9.762
		c-0.008-0.74,0.264-0.907,0.948-0.901c3.253,0.028,6.508,0.035,9.761-0.004c0.739-0.01,0.9,0.246,0.883,0.927
		C67.202,138.784,67.231,140.456,67.231,142.129z"/>
	<path fill="#FEFEFE" d="M61.391,130.898c-1.628,0-3.257-0.024-4.884,0.013c-0.652,0.015-0.857-0.203-0.851-0.853
		c0.029-2.939,0.031-5.88,0-8.819c-0.008-0.711,0.226-0.932,0.934-0.926c3.257,0.032,6.513,0.037,9.77-0.002
		c0.752-0.01,0.892,0.274,0.885,0.946c-0.03,2.939-0.031,5.88,0.001,8.819c0.007,0.651-0.181,0.853-0.834,0.836
		C64.739,130.87,63.065,130.899,61.391,130.898z"/>
	<path fill="#FEFEFE" d="M83.118,142.127c0,1.54-0.029,3.078,0.013,4.615c0.02,0.703-0.084,1.051-0.928,1.036
		c-2.94-0.052-5.882-0.037-8.822-0.007c-0.691,0.007-0.943-0.179-0.935-0.91c0.036-3.256,0.037-6.516,0-9.772
		c-0.009-0.747,0.273-0.905,0.949-0.898c2.941,0.026,5.882,0.033,8.823-0.005c0.714-0.008,0.935,0.208,0.916,0.92
		C83.086,138.777,83.118,140.453,83.118,142.127z"/>
	<path fill="#FEFEFE" d="M83.119,125.688c0,1.404-0.036,2.808,0.015,4.21c0.025,0.726-0.12,1.035-0.944,1.021
		c-2.942-0.052-5.886-0.041-8.828-0.007c-0.718,0.009-0.922-0.223-0.914-0.93c0.035-2.897,0.041-5.796-0.003-8.692
		c-0.012-0.802,0.278-0.985,1.021-0.978c2.897,0.035,5.795,0.042,8.693-0.002c0.811-0.013,0.995,0.295,0.973,1.03
		C83.087,122.789,83.119,124.238,83.119,125.688z"/>
</g>
</svg>
